<svg width="230" height="161" viewBox="0 0 230 161" fill="none" xmlns="http://www.w3.org/2000/svg">
<g id="message">
<g id="static">
<path id="Vector" d="M16.0381 0.273399H141.45C145.702 0.278194 149.778 1.972 152.785 4.98321C155.792 7.99443 157.483 12.0771 157.488 16.3356V85.0486C157.483 89.3071 155.792 93.3898 152.785 96.401C149.778 99.4122 145.702 101.106 141.45 101.111H16.0381C11.786 101.106 7.70941 99.4122 4.70272 96.401C1.69603 93.3898 0.00477814 89.3071 0 85.0486V16.3356C0.00477725 12.0771 1.69603 7.99443 4.70272 4.98321C7.70941 1.972 11.786 0.278194 16.0381 0.273399V0.273399Z" fill="#F2F2F2"/>
<path id="Vector_2" d="M15.966 4.80542H141.521C144.553 4.80881 147.459 6.00996 149.603 8.14535C151.746 10.2807 152.952 13.176 152.956 16.1959V84.6219C152.952 87.6418 151.746 90.537 149.603 92.6724C147.459 94.8078 144.553 96.0089 141.521 96.0123H15.966C12.9346 96.0089 10.0282 94.8077 7.88468 92.6723C5.74112 90.537 4.53538 87.6417 4.53198 84.6219V16.1959C4.53538 13.176 5.74112 10.2808 7.88468 8.1454C10.0282 6.01001 12.9346 4.80884 15.966 4.80542Z" fill="white"/>
<path id="Vector_3" d="M17.0227 125.47C16.643 125.469 16.2673 125.393 15.9171 125.246C15.3943 125.036 14.9471 124.672 14.6341 124.203C14.321 123.734 14.1567 123.181 14.1627 122.617V98.781L45.8867 97.7118L19.0142 124.629C18.7543 124.895 18.4445 125.106 18.1026 125.25C17.7608 125.394 17.3937 125.469 17.0227 125.47V125.47Z" fill="#F2F2F2"/>
<path id="Vector_4" d="M125.711 21.8005H31.2103C27.4268 21.8005 24.3596 24.8441 24.3596 28.5985V28.5985C24.3596 32.353 27.4268 35.3966 31.2103 35.3966H125.711C129.494 35.3966 132.562 32.353 132.562 28.5985C132.562 24.8441 129.494 21.8005 125.711 21.8005Z" fill="#F2F2F2"/>
<path id="Vector_5" d="M125.747 43.8941H31.741C27.9772 43.8941 24.9261 46.9377 24.9261 50.6921V50.6921C24.9261 54.4466 27.9772 57.4901 31.741 57.4901H125.747C129.51 57.4901 132.562 54.4466 132.562 50.6921C132.562 46.9377 129.51 43.8941 125.747 43.8941Z" fill="#F2F2F2"/>
<path id="Vector_6" d="M126.277 65.4212H31.7768C27.9933 65.4212 24.9261 68.4648 24.9261 72.2192V72.2192C24.9261 75.9737 27.9933 79.0172 31.7768 79.0172H126.277C130.061 79.0172 133.128 75.9737 133.128 72.2192C133.128 68.4648 130.061 65.4212 126.277 65.4212Z" fill="#F2F2F2"/>
</g>
<g id="wrap-dots">
<path id="Vector_7" d="M213.962 35.3966H88.5504C84.2983 35.4013 80.2217 37.0856 77.215 40.0799C74.2084 43.0742 72.5171 47.134 72.5123 51.3685V119.696C72.5171 123.93 74.2084 127.99 77.215 130.984C80.2217 133.978 84.2983 135.663 88.5504 135.667H213.962C218.214 135.663 222.291 133.978 225.297 130.984C228.304 127.99 229.995 123.93 230 119.696V51.3685C229.995 47.134 228.304 43.0742 225.297 40.0799C222.291 37.0856 218.214 35.4013 213.962 35.3966V35.3966Z" fill="#E6E6E6"/>
<path id="Vector_8" d="M214.034 39.9286H88.4786C85.4471 39.932 82.5407 41.1331 80.3971 43.2685C78.2535 45.4039 77.0477 48.2991 77.0443 51.319V119.745C77.0477 122.765 78.2535 125.66 80.3971 127.796C82.5407 129.931 85.4471 131.132 88.4786 131.135H214.034C217.065 131.132 219.972 129.931 222.115 127.795C224.259 125.66 225.465 122.765 225.468 119.745V51.319C225.465 48.2992 224.259 45.4039 222.115 43.2686C219.972 41.1332 217.065 39.932 214.034 39.9286Z" fill="white"/>
<path id="Vector_9" d="M204.754 159.753L177.882 132.835L209.606 133.904V157.74C209.612 158.304 209.447 158.857 209.134 159.326C208.821 159.795 208.374 160.159 207.851 160.37C207.501 160.516 207.125 160.593 206.746 160.594C206.375 160.592 206.008 160.517 205.666 160.373C205.324 160.229 205.014 160.018 204.754 159.753V159.753Z" fill="#E6E6E6"/>
<g id="typing-indicator">
<path d="M123.781 94.3128C128.63 94.3128 132.562 90.3815 132.562 85.532C132.562 80.6825 128.63 76.7512 123.781 76.7512C118.931 76.7512 115 80.6825 115 85.532C115 90.3815 118.931 94.3128 123.781 94.3128Z" fill="#6C63FF"/>
<path d="M151.539 94.3128C156.389 94.3128 160.32 90.3815 160.32 85.532C160.32 80.6825 156.389 76.7512 151.539 76.7512C146.69 76.7512 142.759 80.6825 142.759 85.532C142.759 90.3815 146.69 94.3128 151.539 94.3128Z" fill="#6C63FF"/>
<path d="M179.298 94.3128C184.147 94.3128 188.079 90.3815 188.079 85.532C188.079 80.6825 184.147 76.7512 179.298 76.7512C174.448 76.7512 170.517 80.6825 170.517 85.532C170.517 90.3815 174.448 94.3128 179.298 94.3128Z" fill="#6C63FF"/>
</g>
</g>
</g>
</svg>
