<svg width="230" height="161" viewBox="0 0 230 161" fill="none" xmlns="http://www.w3.org/2000/svg">
<g id="message">
<g id="static">
<path id="Vector" d="M16.0381 0H141.45C145.702 0.00479504 149.778 1.6986 152.785 4.70981C155.792 7.72103 157.483 11.8037 157.488 16.0622V84.7752C157.483 89.0337 155.792 93.1164 152.785 96.1276C149.778 99.1388 145.702 100.833 141.45 100.837H16.0381C11.786 100.833 7.70941 99.1388 4.70272 96.1276C1.69603 93.1164 0.00477814 89.0337 0 84.7752V16.0622C0.00477725 11.8037 1.69603 7.72103 4.70272 4.70981C7.70941 1.6986 11.786 0.00479504 16.0381 0Z" fill="#FFCFC0"/>
<path id="Vector_2" d="M15.9661 4.53202H141.521C144.553 4.53541 147.459 5.73656 149.603 7.87195C151.746 10.0073 152.952 12.9026 152.956 15.9225V84.3485C152.952 87.3684 151.746 90.2636 149.603 92.399C147.459 94.5344 144.553 95.7355 141.521 95.7389H15.9661C12.9346 95.7355 10.0283 94.5343 7.88471 92.3989C5.74115 90.2636 4.53541 87.3683 4.53201 84.3485V15.9225C4.53541 12.9026 5.74115 10.0074 7.88471 7.872C10.0283 5.73661 12.9346 4.53544 15.9661 4.53202Z" fill="white"/>
<path id="Vector_3" d="M17.0227 125.197C16.643 125.196 16.2673 125.12 15.9171 124.973C15.3943 124.763 14.9471 124.399 14.6341 123.93C14.321 123.46 14.1567 122.907 14.1627 122.343V98.5076L45.8867 97.4384L19.0142 124.356C18.7543 124.621 18.4445 124.832 18.1026 124.977C17.7608 125.121 17.3937 125.196 17.0227 125.197Z" fill="#FFCFC0"/>
<path id="Vector_4" d="M125.711 21.5271H31.2103C27.4268 21.5271 24.3596 24.5707 24.3596 28.3251V28.3251C24.3596 32.0796 27.4268 35.1232 31.2103 35.1232H125.711C129.494 35.1232 132.562 32.0796 132.562 28.3251C132.562 24.5707 129.494 21.5271 125.711 21.5271Z" fill="#FFCFC0"/>
<path id="Vector_5" d="M125.747 43.6207H31.741C27.9772 43.6207 24.9261 46.6643 24.9261 50.4187V50.4187C24.9261 54.1732 27.9772 57.2167 31.741 57.2167H125.747C129.51 57.2167 132.562 54.1732 132.562 50.4187C132.562 46.6643 129.51 43.6207 125.747 43.6207Z" fill="#FFCFC0"/>
<path id="Vector_6" d="M126.277 65.1478H31.7768C27.9933 65.1478 24.9261 68.1914 24.9261 71.9458V71.9458C24.9261 75.7003 27.9933 78.7438 31.7768 78.7438H126.277C130.061 78.7438 133.128 75.7003 133.128 71.9458C133.128 68.1914 130.061 65.1478 126.277 65.1478Z" fill="#FFCFC0"/>
</g>
<g id="wrap-dots">
<path id="Vector_7" d="M213.962 35.1232H88.5504C84.2983 35.1279 80.2217 36.8122 77.215 39.8065C74.2084 42.8008 72.5171 46.8606 72.5123 51.0951V119.422C72.5171 123.657 74.2084 127.716 77.215 130.711C80.2217 133.705 84.2983 135.389 88.5504 135.394H213.962C218.214 135.389 222.291 133.705 225.297 130.711C228.304 127.716 229.995 123.657 230 119.422V51.0951C229.995 46.8606 228.304 42.8008 225.297 39.8065C222.291 36.8122 218.214 35.1279 213.962 35.1232Z" fill="#DAB5AA"/>
<path id="Vector_8" d="M214.034 39.6552H88.4786C85.4471 39.6586 82.5407 40.8597 80.3971 42.9951C78.2535 45.1305 77.0477 48.0257 77.0443 51.0456V119.472C77.0477 122.492 78.2535 125.387 80.3971 127.522C82.5407 129.658 85.4471 130.859 88.4786 130.862H214.034C217.065 130.859 219.972 129.657 222.115 127.522C224.259 125.387 225.465 122.492 225.468 119.472V51.0456C225.465 48.0258 224.259 45.1305 222.115 42.9952C219.972 40.8598 217.065 39.6586 214.034 39.6552Z" fill="white"/>
<path id="Vector_9" d="M204.754 159.479L177.882 132.562L209.606 133.631V157.466C209.612 158.031 209.447 158.584 209.134 159.053C208.821 159.522 208.374 159.886 207.851 160.096C207.501 160.243 207.125 160.319 206.746 160.32C206.375 160.319 206.008 160.244 205.666 160.1C205.324 159.955 205.014 159.744 204.754 159.479Z" fill="#DAB5AA"/>
</g>
<g id = "typing-indicator">
<path d="M123.781 94.0394C128.63 94.0394 132.562 90.1081 132.562 85.2586C132.562 80.4091 128.63 76.4778 123.781 76.4778C118.931 76.4778 115 80.4091 115 85.2586C115 90.1081 118.931 94.0394 123.781 94.0394Z" fill="#FFAE95"/>
<path d="M151.539 94.0394C156.389 94.0394 160.32 90.1081 160.32 85.2586C160.32 80.4091 156.389 76.4778 151.539 76.4778C146.69 76.4778 142.759 80.4091 142.759 85.2586C142.759 90.1081 146.69 94.0394 151.539 94.0394Z" fill="#FFAE95"/>
<path d="M179.298 94.0394C184.148 94.0394 188.079 90.1081 188.079 85.2586C188.079 80.4091 184.148 76.4778 179.298 76.4778C174.449 76.4778 170.517 80.4091 170.517 85.2586C170.517 90.1081 174.449 94.0394 179.298 94.0394Z" fill="#FFAE95"/>
</g>
</g>
</svg>
